<svg xmlns="http://www.w3.org/2000/svg" xmlns:xlink="http://www.w3.org/1999/xlink" width="1280" zoomAndPan="magnify" viewBox="0 0 960 479.999983" height="640" preserveAspectRatio="xMidYMid meet" version="1.0"><defs><g/><clipPath id="89c360935c"><path d="M 0 59.261719 L 361.5 59.261719 L 361.5 420.761719 L 0 420.761719 Z M 0 59.261719 " clip-rule="nonzero"/></clipPath></defs><g clip-path="url(#89c360935c)"><path fill="#9ca394" d="M 0 113.480469 C 0 83.539062 24.273438 59.261719 54.21875 59.261719 L 307.246094 59.261719 C 337.191406 59.261719 361.464844 83.539062 361.464844 113.480469 L 361.464844 366.507812 C 361.464844 396.453125 337.191406 420.726562 307.246094 420.726562 L 54.21875 420.726562 C 24.273438 420.726562 0 396.453125 0 366.507812 Z M 36.148438 366.507812 L 36.148438 239.996094 L 180.734375 239.996094 L 180.734375 384.582031 L 54.21875 384.582031 C 44.238281 384.582031 36.148438 376.488281 36.148438 366.507812 Z M 325.316406 239.996094 L 180.734375 239.996094 L 180.734375 95.410156 L 307.246094 95.410156 C 317.226562 95.410156 325.316406 103.5 325.316406 113.480469 Z M 325.316406 239.996094 " fill-opacity="1" fill-rule="evenodd"/></g><g fill="#9ca394" fill-opacity="1"><g transform="translate(389.637117, 413.554077)"><g><path d="M 112.515625 4.625 C 78.859375 4.625 54.835938 -4.039062 40.453125 -21.375 C 26.066406 -38.71875 18.875 -64.34375 18.875 -98.25 L 18.875 -214.234375 C 18.875 -248.140625 26.066406 -273.632812 40.453125 -290.71875 C 54.835938 -307.800781 78.859375 -316.34375 112.515625 -316.34375 C 146.421875 -316.34375 170.628906 -307.734375 185.140625 -290.515625 C 199.648438 -273.304688 206.90625 -247.878906 206.90625 -214.234375 L 206.90625 -98.25 C 206.90625 -64.34375 199.648438 -38.71875 185.140625 -21.375 C 170.628906 -4.039062 146.421875 4.625 112.515625 4.625 Z M 112.515625 -44.3125 C 122.273438 -44.3125 128.695312 -47.585938 131.78125 -54.140625 C 134.863281 -60.691406 136.40625 -69.617188 136.40625 -80.921875 L 136.40625 -231.1875 C 136.40625 -242.75 134.863281 -251.738281 131.78125 -258.15625 C 128.695312 -264.582031 122.273438 -267.796875 112.515625 -267.796875 C 103.265625 -267.796875 97.097656 -264.519531 94.015625 -257.96875 C 90.929688 -251.414062 89.390625 -242.488281 89.390625 -231.1875 L 89.390625 -80.921875 C 89.390625 -69.617188 90.800781 -60.691406 93.625 -54.140625 C 96.457031 -47.585938 102.753906 -44.3125 112.515625 -44.3125 Z M 112.515625 -44.3125 "/></g></g></g><g fill="#9ca394" fill-opacity="1"><g transform="translate(593.856094, 413.554077)"><g><path d="M 51.25 -260.859375 L 4.234375 -260.859375 L 4.234375 -312.109375 L 167.21875 -312.109375 L 167.21875 -260.859375 L 120.609375 -260.859375 L 120.609375 0 L 51.25 0 Z M 51.25 -260.859375 "/></g></g></g><g fill="#9ca394" fill-opacity="1"><g transform="translate(746.827567, 413.554077)"><g><path d="M 23.125 -312.109375 L 104.421875 -312.109375 C 124.710938 -312.109375 141.984375 -309.988281 156.234375 -305.75 C 170.492188 -301.507812 181.988281 -293.351562 190.71875 -281.28125 C 199.457031 -269.207031 203.828125 -252.253906 203.828125 -230.421875 C 203.828125 -211.921875 199.84375 -197.53125 191.875 -187.25 C 183.914062 -176.976562 172.617188 -170.429688 157.984375 -167.609375 C 175.960938 -165.296875 189.703125 -157.71875 199.203125 -144.875 C 208.710938 -132.03125 213.46875 -114.5625 213.46875 -92.46875 C 213.46875 -30.820312 182 0 119.0625 0 L 23.125 0 Z M 105.578125 -187.265625 C 120.210938 -187.265625 130.164062 -190.601562 135.4375 -197.28125 C 140.707031 -203.957031 143.34375 -214.359375 143.34375 -228.484375 C 143.34375 -240.816406 140 -250.128906 133.3125 -256.421875 C 126.632812 -262.710938 116.875 -265.859375 104.03125 -265.859375 L 92.09375 -265.859375 L 92.09375 -187.265625 Z M 106.734375 -48.171875 C 121.367188 -48.171875 131.703125 -51.828125 137.734375 -59.140625 C 143.773438 -66.460938 146.796875 -77.957031 146.796875 -93.625 C 146.796875 -111.351562 143.773438 -123.8125 137.734375 -131 C 131.703125 -138.195312 121.238281 -141.796875 106.34375 -141.796875 L 92.09375 -141.796875 L 92.09375 -48.171875 Z M 106.734375 -48.171875 "/></g></g></g></svg>