<svg xmlns="http://www.w3.org/2000/svg" xmlns:xlink="http://www.w3.org/1999/xlink" width="1280" zoomAndPan="magnify" viewBox="0 0 960 479.999983" height="640" preserveAspectRatio="xMidYMid meet" version="1.0"><defs><g/><clipPath id="e467477603"><path d="M 28.988281 96.710938 L 307.246094 96.710938 L 307.246094 390.414062 L 28.988281 390.414062 Z M 28.988281 96.710938 " clip-rule="nonzero"/></clipPath><clipPath id="a5f020a324"><path d="M 0.988281 0.710938 L 279.246094 0.710938 L 279.246094 294.414062 L 0.988281 294.414062 Z M 0.988281 0.710938 " clip-rule="nonzero"/></clipPath><clipPath id="7f98666284"><rect x="0" width="280" y="0" height="295"/></clipPath><clipPath id="694dbc9c1c"><path d="M 0 40.40625 L 329.167969 40.40625 L 329.167969 369.574219 L 0 369.574219 Z M 0 40.40625 " clip-rule="nonzero"/></clipPath><clipPath id="70bd43a42c"><path d="M 410 0.519531 L 888.238281 0.519531 L 888.238281 409.480469 L 410 409.480469 Z M 410 0.519531 " clip-rule="nonzero"/></clipPath><clipPath id="229ca5aaaf"><rect x="0" width="479" y="0" height="410"/></clipPath><clipPath id="0c522469c9"><rect x="0" width="889" y="0" height="410"/></clipPath></defs><g clip-path="url(#e467477603)"><g transform="matrix(1, 0, 0, 1, 28, 96)"><g clip-path="url(#7f98666284)"><g clip-path="url(#a5f020a324)"><path fill="#ffffff" d="M 0.988281 0.710938 L 279.246094 0.710938 L 279.246094 294.1875 L 0.988281 294.1875 Z M 0.988281 0.710938 " fill-opacity="1" fill-rule="nonzero"/></g></g></g></g><g transform="matrix(1, 0, 0, 1, 0, 35)"><g clip-path="url(#0c522469c9)"><g clip-path="url(#694dbc9c1c)"><path fill="#000000" d="M 0 89.78125 C 0 62.515625 22.105469 40.40625 49.375 40.40625 L 279.792969 40.40625 C 307.0625 40.40625 329.167969 62.515625 329.167969 89.78125 L 329.167969 320.199219 C 329.167969 347.46875 307.0625 369.574219 279.792969 369.574219 L 49.375 369.574219 C 22.105469 369.574219 0 347.46875 0 320.199219 Z M 32.917969 320.199219 L 32.917969 204.992188 L 164.582031 204.992188 L 164.582031 336.65625 L 49.375 336.65625 C 40.285156 336.65625 32.917969 329.289062 32.917969 320.199219 Z M 296.25 204.992188 L 164.582031 204.992188 L 164.582031 73.324219 L 279.792969 73.324219 C 288.882812 73.324219 296.25 80.695312 296.25 89.78125 Z M 296.25 204.992188 " fill-opacity="1" fill-rule="evenodd"/></g><g clip-path="url(#70bd43a42c)"><g transform="matrix(1, 0, 0, 1, 410, -0.000000000000007105)"><g clip-path="url(#229ca5aaaf)"><g fill="#000000" fill-opacity="1"><g transform="translate(2.810257, 327.631846)"><g><path d="M 80.59375 3.3125 C 56.488281 3.3125 39.285156 -2.894531 28.984375 -15.3125 C 18.679688 -27.738281 13.53125 -46.09375 13.53125 -70.375 L 13.53125 -153.453125 C 13.53125 -177.742188 18.679688 -196.003906 28.984375 -208.234375 C 39.285156 -220.472656 56.488281 -226.59375 80.59375 -226.59375 C 104.882812 -226.59375 122.226562 -220.425781 132.625 -208.09375 C 143.019531 -195.769531 148.21875 -177.554688 148.21875 -153.453125 L 148.21875 -70.375 C 148.21875 -46.09375 143.019531 -27.738281 132.625 -15.3125 C 122.226562 -2.894531 104.882812 3.3125 80.59375 3.3125 Z M 80.59375 -31.734375 C 87.582031 -31.734375 92.179688 -34.078125 94.390625 -38.765625 C 96.597656 -43.460938 97.703125 -49.859375 97.703125 -57.953125 L 97.703125 -165.59375 C 97.703125 -173.875 96.597656 -180.3125 94.390625 -184.90625 C 92.179688 -189.507812 87.582031 -191.8125 80.59375 -191.8125 C 73.96875 -191.8125 69.550781 -189.46875 67.34375 -184.78125 C 65.132812 -180.09375 64.03125 -173.695312 64.03125 -165.59375 L 64.03125 -57.953125 C 64.03125 -49.859375 65.039062 -43.460938 67.0625 -38.765625 C 69.09375 -34.078125 73.601562 -31.734375 80.59375 -31.734375 Z M 80.59375 -31.734375 "/></g></g></g><g fill="#000000" fill-opacity="1"><g transform="translate(172.545395, 327.631846)"><g><path d="M 36.703125 -186.859375 L 3.03125 -186.859375 L 3.03125 -223.5625 L 119.78125 -223.5625 L 119.78125 -186.859375 L 86.390625 -186.859375 L 86.390625 0 L 36.703125 0 Z M 36.703125 -186.859375 "/></g></g></g><g fill="#000000" fill-opacity="1"><g transform="translate(305.573798, 327.631846)"><g><path d="M 16.5625 -223.5625 L 74.796875 -223.5625 C 89.328125 -223.5625 101.695312 -222.039062 111.90625 -219 C 122.125 -215.96875 130.359375 -210.128906 136.609375 -201.484375 C 142.867188 -192.835938 146 -180.691406 146 -165.046875 C 146 -151.796875 143.144531 -141.488281 137.4375 -134.125 C 131.738281 -126.769531 123.644531 -122.082031 113.15625 -120.0625 C 126.039062 -118.40625 135.882812 -112.972656 142.6875 -103.765625 C 149.5 -94.566406 152.90625 -82.054688 152.90625 -66.234375 C 152.90625 -22.078125 130.363281 0 85.28125 0 L 16.5625 0 Z M 75.625 -134.140625 C 86.113281 -134.140625 93.242188 -136.53125 97.015625 -141.3125 C 100.785156 -146.09375 102.671875 -153.546875 102.671875 -163.671875 C 102.671875 -172.503906 100.273438 -179.171875 95.484375 -183.671875 C 90.703125 -188.179688 83.710938 -190.4375 74.515625 -190.4375 L 65.96875 -190.4375 L 65.96875 -134.140625 Z M 76.453125 -34.5 C 86.941406 -34.5 94.347656 -37.117188 98.671875 -42.359375 C 102.992188 -47.609375 105.15625 -55.84375 105.15625 -67.0625 C 105.15625 -79.757812 102.992188 -88.679688 98.671875 -93.828125 C 94.347656 -98.984375 86.847656 -101.5625 76.171875 -101.5625 L 65.96875 -101.5625 L 65.96875 -34.5 Z M 76.453125 -34.5 "/></g></g></g></g></g></g></g></g></svg>